<?xml version="1.0" encoding="UTF-8" standalone="no"?>
<!-- Created with Inkscape (http://www.inkscape.org/) -->

<svg
   width="256"
   height="256"
   viewBox="0 0 256 256"
   version="1.1"
   id="svg5"
   inkscape:version="1.2.1 (9c6d41e410, 2022-07-14)"
   sodipodi:docname="next.svg"
   inkscape:export-filename="next.png"
   inkscape:export-xdpi="48"
   inkscape:export-ydpi="48"
   xml:space="preserve"
   xmlns:inkscape="http://www.inkscape.org/namespaces/inkscape"
   xmlns:sodipodi="http://sodipodi.sourceforge.net/DTD/sodipodi-0.dtd"
   xmlns="http://www.w3.org/2000/svg"
   xmlns:svg="http://www.w3.org/2000/svg"><sodipodi:namedview
     id="namedview7"
     pagecolor="#ffffff"
     bordercolor="#000000"
     borderopacity="0.25"
     inkscape:showpageshadow="2"
     inkscape:pageopacity="0.0"
     inkscape:pagecheckerboard="0"
     inkscape:deskcolor="#d1d1d1"
     inkscape:document-units="px"
     showgrid="true"
     inkscape:lockguides="false"
     inkscape:zoom="5"
     inkscape:cx="80.3"
     inkscape:cy="106.4"
     inkscape:window-width="2593"
     inkscape:window-height="1784"
     inkscape:window-x="882"
     inkscape:window-y="120"
     inkscape:window-maximized="0"
     inkscape:current-layer="layer1"><inkscape:grid
       type="xygrid"
       id="grid360" /></sodipodi:namedview><defs
     id="defs2" /><g
     inkscape:label="Layer 1"
     inkscape:groupmode="layer"
     id="layer1"><path
       id="rect5284-4"
       style="fill:none;stroke:#000000;stroke-width:16;stroke-linecap:round;stroke-linejoin:round"
       d="m 157.0869,51.933596 c -6.13486,-3e-6 -12.26987,2.349936 -16.97071,7.050777 -9.40168,9.401682 -9.40168,24.539723 0,33.941407 l 34.50782,34.50782 -34.50782,34.50781 c -9.40168,9.40168 -9.40168,24.53972 1e-5,33.94141 9.40167,9.40167 24.53971,9.40167 33.9414,-1e-5 l 50.9121,-50.91211 c 4.84575,-4.84575 7.17282,-11.21455 7.02345,-17.5371 0.14924,-6.32241 -2.17781,-12.69149 -7.02344,-17.53711 L 174.0576,58.984374 c -4.70084,-4.700839 -10.83585,-7.050782 -16.9707,-7.050778 z" /><path
       id="rect5284-4-9"
       style="fill:none;stroke:#000000;stroke-width:16;stroke-linecap:round;stroke-linejoin:round"
       d="m 47.955899,52 c -6.13486,0 -12.26987,2.34994 -16.97071,7.05078 -9.40168,9.40168 -9.40168,24.53972 0,33.94141 L 65.493009,127.5 30.985189,162.00782 c -9.40168,9.40168 -9.40168,24.53972 1e-5,33.9414 9.40167,9.40168 24.53971,9.40168 33.9414,0 L 115.8387,145.03711 c 4.84575,-4.84575 7.17282,-11.21455 7.02345,-17.53711 0.14924,-6.3224 -2.17781,-12.69148 -7.02344,-17.53711 L 64.926599,59.05078 C 60.225759,54.34994 54.090749,52 47.955899,52 Z" /></g></svg>
