<?xml version="1.0" encoding="UTF-8" standalone="no"?>
<!-- Created with Inkscape (http://www.inkscape.org/) -->

<svg
   width="256"
   height="256"
   viewBox="0 0 256 256"
   version="1.1"
   id="svg5"
   inkscape:version="1.2.1 (9c6d41e410, 2022-07-14)"
   sodipodi:docname="shuffle.svg"
   inkscape:export-filename="shuffle.png"
   inkscape:export-xdpi="48"
   inkscape:export-ydpi="48"
   xml:space="preserve"
   xmlns:inkscape="http://www.inkscape.org/namespaces/inkscape"
   xmlns:sodipodi="http://sodipodi.sourceforge.net/DTD/sodipodi-0.dtd"
   xmlns="http://www.w3.org/2000/svg"
   xmlns:svg="http://www.w3.org/2000/svg"><sodipodi:namedview
     id="namedview7"
     pagecolor="#ffffff"
     bordercolor="#000000"
     borderopacity="0.25"
     inkscape:showpageshadow="2"
     inkscape:pageopacity="0.0"
     inkscape:pagecheckerboard="0"
     inkscape:deskcolor="#d1d1d1"
     inkscape:document-units="px"
     showgrid="true"
     inkscape:lockguides="true"
     inkscape:zoom="5"
     inkscape:cx="119.7"
     inkscape:cy="127.5"
     inkscape:window-width="2593"
     inkscape:window-height="1784"
     inkscape:window-x="602"
     inkscape:window-y="203"
     inkscape:window-maximized="0"
     inkscape:current-layer="layer1"><inkscape:grid
       type="xygrid"
       id="grid360" /></sodipodi:namedview><defs
     id="defs2" /><g
     inkscape:label="Layer 1"
     inkscape:groupmode="layer"
     id="layer1"><path
       sodipodi:type="star"
       style="fill:#000000;fill-opacity:1;stroke:#000000;stroke-width:35.0542;stroke-linecap:round;stroke-linejoin:round;stroke-dasharray:none;stroke-opacity:1"
       id="path3893"
       inkscape:flatsided="true"
       sodipodi:sides="3"
       sodipodi:cx="0"
       sodipodi:cy="144"
       sodipodi:r1="64"
       sodipodi:r2="32"
       sodipodi:arg1="0"
       sodipodi:arg2="1.0471976"
       inkscape:rounded="0"
       inkscape:randomized="0"
       d="m 64,144 -96,55.42563 0,-110.851256 z"
       inkscape:transform-center-x="-6.6666634"
       transform="matrix(0.41666667,0,0,0.5,217.33333,-5.8564065)" /><path
       sodipodi:type="star"
       style="fill:#000000;fill-opacity:1;stroke:#000000;stroke-width:35.0542;stroke-linecap:round;stroke-linejoin:round;stroke-dasharray:none;stroke-opacity:1"
       id="path3893-9"
       inkscape:flatsided="true"
       sodipodi:sides="3"
       sodipodi:cx="0"
       sodipodi:cy="144"
       sodipodi:r1="64"
       sodipodi:r2="32"
       sodipodi:arg1="0"
       sodipodi:arg2="1.0471976"
       inkscape:rounded="0"
       inkscape:randomized="0"
       d="m 64,144 -96,55.42563 0,-110.851256 z"
       inkscape:transform-center-x="-6.6666634"
       transform="matrix(0.41666667,0,0,0.5,217.33333,122.14359)" /><path
       id="path4343-4"
       style="color:#000000;fill:#000000;stroke-linecap:round;stroke-linejoin:round;-inkscape-stroke:none"
       d="M 200 56 C 167.93255 56 146.3659 64.7614 131.52148 78.191406 C 125.64457 83.508355 120.8614 89.42654 116.74219 95.626953 L 125.30859 112.42969 C 130.0534 103.95022 135.36978 96.28661 142.25586 90.056641 C 154.09073 79.349414 170.73426 72 200 72 A 8 8 0 0 0 208 64 A 8 8 0 0 0 200 56 z M 91.472656 144.07031 C 86.693367 152.55125 81.324 160.19692 74.353516 166.38867 C 62.421134 176.98799 45.584816 184.20981 16.056641 184 A 8 8 0 0 0 8 191.94336 A 8 8 0 0 0 15.943359 200 C 48.24115 200.22949 69.985232 191.66983 84.978516 178.35156 C 90.969691 173.02971 95.83497 167.07999 100.01758 160.83594 L 91.472656 144.07031 z " /><path
       style="fill:none;fill-opacity:1;stroke:#000000;stroke-width:16;stroke-linecap:round;stroke-linejoin:round;stroke-dasharray:none;stroke-opacity:1"
       d="M 16.00003,64 C 139.65221,63.121403 77.333339,192 199.99997,192"
       id="path4343"
       sodipodi:nodetypes="cc" /></g></svg>
